<?xml version="1.0" encoding="UTF-8"?>
<!DOCTYPE svg PUBLIC "-//W3C//DTD SVG 1.1//EN" "http://www.w3.org/Graphics/SVG/1.1/DTD/svg11.dtd">
<svg xmlns="http://www.w3.org/2000/svg" version="1.1" width="1080px" height="1080px" style="shape-rendering:geometricPrecision; text-rendering:geometricPrecision; image-rendering:optimizeQuality; fill-rule:evenodd; clip-rule:evenodd" xmlns:xlink="http://www.w3.org/1999/xlink">
<g><path style="opacity:1" fill="#fefefe" d="M -0.5,-0.5 C 359.5,-0.5 719.5,-0.5 1079.5,-0.5C 1079.5,359.5 1079.5,719.5 1079.5,1079.5C 719.5,1079.5 359.5,1079.5 -0.5,1079.5C -0.5,719.5 -0.5,359.5 -0.5,-0.5 Z"/></g>
<g><path style="opacity:1" fill="#000000" d="M 510.5,192.5 C 595.494,187.243 672.827,208.743 742.5,257C 799.326,299.814 828.826,356.98 831,428.5C 842.298,437.464 852.632,447.464 862,458.5C 868.095,465.784 870.762,474.118 870,483.5C 866.837,491.178 861.004,495.011 852.5,495C 834.118,494.575 816.118,491.575 798.5,486C 773.189,477.34 747.855,468.674 722.5,460C 691.067,449.039 658.733,444.706 625.5,447C 556.447,456.921 506.614,493.087 476,555.5C 449.131,620.935 455.464,682.935 495,741.5C 541.288,800.442 601.788,825.109 676.5,815.5C 715.306,808.599 748.64,791.432 776.5,764C 732.826,783.271 688.159,785.605 642.5,771C 625.062,764.121 609.062,754.954 594.5,743.5C 624.787,719.428 657.787,699.595 693.5,684C 710.616,676.972 728.283,674.639 746.5,677C 753.635,679.152 760.468,681.985 767,685.5C 766.369,680.899 765.702,676.233 765,671.5C 763.604,661.778 764.937,652.445 769,643.5C 776.005,628.141 785.005,614.141 796,601.5C 809.597,586.899 824.097,573.399 839.5,561C 854.975,549.692 870.308,538.192 885.5,526.5C 887.91,647.501 841.577,745.001 746.5,819C 652.071,885.502 549.071,903.169 437.5,872C 335.496,838.418 262.663,772.585 219,674.5C 175.6,563.496 184.266,456.83 245,354.5C 257.597,335.156 271.763,316.99 287.5,300C 269.047,293.638 250.047,289.972 230.5,289C 224.24,285.235 222.073,279.735 224,272.5C 264.665,234.113 313.165,216.28 369.5,219C 379.175,220.272 388.842,221.272 398.5,222C 434.287,205.888 471.62,196.055 510.5,192.5 Z"/></g>
<g><path style="opacity:1" fill="#fbfbfb" d="M 713.5,370.5 C 730.373,370.255 740.04,378.422 742.5,395C 739.461,413.016 728.794,420.682 710.5,418C 694.579,409.904 690.412,397.738 698,381.5C 702.127,376.202 707.294,372.535 713.5,370.5 Z"/></g>
<g><path style="opacity:1" fill="#010101" d="M 585.5,477.5 C 586.552,477.351 587.552,477.517 588.5,478C 573.764,502.443 567.264,528.943 569,557.5C 571.202,572.095 571.869,586.761 571,601.5C 567.474,618.366 558.974,632.199 545.5,643C 537.25,649.749 528.584,655.916 519.5,661.5C 513.539,656.259 509.039,649.926 506,642.5C 487.593,591.081 497.427,545.915 535.5,507C 550.218,493.81 566.885,483.976 585.5,477.5 Z"/></g>
</svg>
